# xmcd
#
# Track frame offsets:
# 150
# 19941
# 38311
# 59321
# 73046
# 87977
# 103362
# 120212
# 139024
# 152734
# 167013
# 187213
#
# Disc length: 2714 seconds
#
#
# Revision: 0
# Processed by: cddbd v1.5.1PL0 Copyright (c) Steve Scherf et al.
# Submitted via: FreeRIP 2.40 
#
DISCID=9d0a980c
DTITLE=Pete Murray - feeler
DYEAR=2003
DGENRE=Pop
TTITLE0=Feeler
TTITLE1=Bail Me Out
TTITLE2=So Beautiful
TTITLE3=Lines
TTITLE4=Freedom
TTITLE5=Please
TTITLE6=Fall Your Way
TTITLE7=My Time
TTITLE8=Tonic
TTITLE9=No More
TTITLE10=10ft Tall
TTITLE11=Unknown?
EXTD=
EXTT0=
EXTT1=
EXTT2=
EXTT3=
EXTT4=
EXTT5=
EXTT6=
EXTT7=
EXTT8=
EXTT9=
EXTT10=
EXTT11=
PLAYORDER=
